<mxfile host="app.diagrams.net" modified="2023-09-19T12:48:48.060Z" agent="Mozilla/5.0 (Macintosh; Intel Mac OS X 10_15_7) AppleWebKit/537.36 (KHTML, like Gecko) Chrome/114.0.0.0 Safari/537.36" version="21.6.9" etag="NuhgZ8pReeUR7cGBz3aZ" type="github">
  <diagram name="Page-1" id="IE9YU_EfzY6K7VpgON9N">
    <mxGraphModel>
      <root>
        <mxCell id="0" />
        <mxCell id="1" parent="0" />
      </root>
    </mxGraphModel>
  </diagram>
</mxfile>
